<svg width="58" height="58" viewBox="0 0 58 58" fill="none" xmlns="http://www.w3.org/2000/svg">
<rect y="0.231079" width="58" height="57" rx="9" fill="#EBBFAE"/>
<path d="M41.7815 41.8109L40.2918 40.149C40.3925 37.9391 40.5588 27.1089 34.6657 20.5341C29.5663 14.8452 21.4815 14.2311 18.2422 14.2311C17.3149 14.2311 16.7577 14.2802 16.7346 14.2823C16.3698 14.3151 16.08 14.638 16.0509 15.045C16.0136 15.5647 15.208 27.8571 21.655 35.0489C26.7544 40.7378 34.8399 41.3516 38.0793 41.3516C38.5858 41.3516 38.9766 41.337 39.2359 41.3237L40.7271 42.9872C40.8725 43.1499 41.0635 43.2311 41.2545 43.2311C41.4454 43.2311 41.6364 43.1499 41.7819 42.9872C42.0728 42.6623 42.0728 42.1359 41.7815 41.8109ZM22.7094 33.8722C17.6085 28.1816 17.4455 18.6093 17.5089 15.9071C17.7125 15.9005 17.9591 15.8959 18.2422 15.8959C21.2958 15.8959 28.9057 16.4626 33.6109 21.7113C38.133 26.7561 38.7737 34.8492 38.817 38.5034L33.3129 32.3634L34.0059 25.737C34.0537 25.2806 33.7605 24.8674 33.3517 24.8141C32.9392 24.7617 32.5722 25.0879 32.5244 25.544L31.9683 30.863L28.2001 26.6595L27.6175 21.7404C27.5634 21.2848 27.1867 20.9627 26.7801 21.0243C26.3717 21.0846 26.0841 21.5028 26.1382 21.9584L26.4657 24.7251L22.0962 19.8501C21.8053 19.5251 21.3323 19.5251 21.0414 19.8501C20.7501 20.175 20.7501 20.7018 21.0414 21.0268L25.4105 25.901L22.9313 25.5356C22.5229 25.4757 22.1477 25.7961 22.094 26.2518C22.0399 26.7074 22.3275 27.1256 22.7359 27.1859L27.1445 27.8358L30.9128 32.0393L26.1453 32.6597C25.7361 32.7129 25.4433 33.1261 25.4911 33.5826C25.5355 34.0066 25.8577 34.3187 26.2311 34.3187C26.2598 34.3187 26.2889 34.317 26.3184 34.3128L32.2577 33.5401L37.7667 39.6859C34.5337 39.6456 27.2616 38.9507 22.7094 33.8722Z" fill="#2A2A2A"/>
</svg>
