<svg width="53" height="52" viewBox="0 0 53 52" fill="none" xmlns="http://www.w3.org/2000/svg">
<circle cx="26.5" cy="26" r="25" stroke="#285E67" stroke-width="2"/>
<path d="M13.651 28.3379H13.5V28.4896C13.5063 32.0736 14.9282 35.5085 17.4534 38.0398C19.9785 40.571 23.4003 41.9916 26.9672 41.9895H27.1103V41.8457C27.1093 40.0708 26.7603 38.3134 26.0833 36.674C25.4064 35.0346 24.4147 33.5452 23.1649 32.2909C21.9151 31.0366 20.4316 30.0419 18.7992 29.3636C17.1669 28.6854 15.4175 28.3368 13.651 28.3379ZM40.6252 28.3299C37.0604 28.3341 33.6431 29.76 31.124 32.2942C28.6048 34.8285 27.1898 38.2639 27.1898 41.8457V41.9895H27.3329C30.899 41.9853 34.3175 40.5583 36.8369 38.0223C39.3563 35.4864 40.7704 32.0489 40.7683 28.4657V28.3299H40.6252ZM30.7991 28.0103C30.807 27.88 30.807 27.7493 30.7991 27.6189C31.0394 27.8275 31.3068 28.0021 31.5941 28.1382C32.0343 28.3676 32.516 28.5057 33.0104 28.5443C33.5048 28.5828 34.0019 28.521 34.4721 28.3625C34.9423 28.204 35.3759 27.9521 35.7472 27.6217C36.1185 27.2913 36.4198 26.8893 36.6332 26.4395C36.8466 25.9897 36.9678 25.5013 36.9895 25.0035C37.0112 24.5056 36.933 24.0085 36.7595 23.5417C36.586 23.0748 36.3209 22.6479 35.9798 22.2861C35.6387 21.9244 35.2286 21.6353 34.774 21.4362L34.4242 21.2764L34.774 21.1166C34.9369 21.0231 35.0936 20.919 35.2431 20.8051C36.019 20.213 36.529 19.3354 36.661 18.3654C36.7929 17.3954 36.536 16.4124 35.9467 15.6328C35.3573 14.8532 34.4839 14.3407 33.5186 14.2081C32.5532 14.0755 31.575 14.3337 30.7991 14.9259C30.807 14.7955 30.807 14.6648 30.7991 14.5344C30.755 13.5822 30.3476 12.6837 29.6614 12.0255C28.9752 11.3673 28.063 11 27.1143 11C26.1656 11 25.2534 11.3673 24.5672 12.0255C23.881 12.6837 23.4735 13.5822 23.4295 14.5344C23.4215 14.6648 23.4215 14.7955 23.4295 14.9259C23.1871 14.7201 22.9201 14.5456 22.6345 14.4066C21.7489 13.9829 20.7321 13.93 19.8078 14.2596C18.8834 14.5892 18.1272 15.2742 17.7055 16.164C17.2838 17.0538 17.2312 18.0755 17.5592 19.0043C17.8872 19.9331 18.569 20.6929 19.4545 21.1166L19.8043 21.2764L19.4545 21.4362C19.2917 21.5269 19.135 21.6283 18.9855 21.7397C18.2095 22.3318 17.6995 23.2094 17.5676 24.1794C17.4356 25.1494 17.6926 26.1324 18.2819 26.912C18.8712 27.6916 19.7446 28.2041 20.71 28.3367C21.6753 28.4693 22.6536 28.2111 23.4295 27.6189C23.4215 27.7493 23.4215 27.88 23.4295 28.0103C23.4735 28.9626 23.881 29.8611 24.5672 30.5193C25.2534 31.1775 26.1656 31.5448 27.1143 31.5448C28.063 31.5448 28.9752 31.1775 29.6614 30.5193C30.3476 29.8611 30.755 28.9626 30.7991 28.0103ZM27.1103 24.9669C26.3807 24.9669 25.6675 24.7495 25.0609 24.3422C24.4543 23.935 23.9815 23.3561 23.7023 22.6788C23.4231 22.0016 23.3501 21.2563 23.4924 20.5373C23.6347 19.8183 23.9861 19.1579 24.5019 18.6395C25.0178 18.1212 25.6751 17.7682 26.3906 17.6252C27.1062 17.4821 27.8479 17.5555 28.5219 17.8361C29.196 18.1166 29.7721 18.5917 30.1774 19.2012C30.5827 19.8107 30.7991 20.5273 30.7991 21.2604C30.8001 21.7475 30.7054 22.2299 30.5204 22.6801C30.3354 23.1302 30.0637 23.5392 29.721 23.8836C29.3782 24.228 28.9712 24.501 28.5232 24.6869C28.0752 24.8728 27.595 24.9679 27.1103 24.9669Z" stroke="#285E67" stroke-width="1.5" stroke-linecap="round" stroke-linejoin="round"/>
</svg>
