<svg width="58" height="58" viewBox="0 0 58 58" fill="none" xmlns="http://www.w3.org/2000/svg">
<rect y="0.731079" width="58" height="57" rx="9" fill="#285E67"/>
<path d="M41.7815 42.3109L40.2918 40.649C40.3925 38.4391 40.5588 27.6089 34.6657 21.0341C29.5663 15.3452 21.4815 14.7311 18.2422 14.7311C17.3149 14.7311 16.7577 14.7802 16.7346 14.7823C16.3698 14.8151 16.08 15.138 16.0509 15.545C16.0136 16.0647 15.208 28.3571 21.655 35.5489C26.7544 41.2378 34.8399 41.8516 38.0793 41.8516C38.5858 41.8516 38.9766 41.837 39.2359 41.8237L40.7271 43.4872C40.8725 43.6499 41.0635 43.7311 41.2545 43.7311C41.4454 43.7311 41.6364 43.6499 41.7819 43.4872C42.0728 43.1623 42.0728 42.6359 41.7815 42.3109ZM22.7094 34.3722C17.6085 28.6816 17.4455 19.1093 17.5089 16.4071C17.7125 16.4005 17.9591 16.3959 18.2422 16.3959C21.2958 16.3959 28.9057 16.9626 33.6109 22.2113C38.133 27.2561 38.7737 35.3492 38.817 39.0034L33.3129 32.8634L34.0059 26.237C34.0537 25.7806 33.7605 25.3674 33.3517 25.3141C32.9392 25.2617 32.5722 25.5879 32.5244 26.044L31.9683 31.363L28.2001 27.1595L27.6175 22.2404C27.5634 21.7848 27.1867 21.4627 26.7801 21.5243C26.3717 21.5846 26.0841 22.0028 26.1382 22.4584L26.4657 25.2251L22.0962 20.3501C21.8053 20.0251 21.3323 20.0251 21.0414 20.3501C20.7501 20.675 20.7501 21.2018 21.0414 21.5268L25.4105 26.401L22.9313 26.0356C22.5229 25.9757 22.1477 26.2961 22.094 26.7518C22.0399 27.2074 22.3275 27.6256 22.7359 27.6859L27.1445 28.3358L30.9128 32.5393L26.1453 33.1597C25.7361 33.2129 25.4433 33.6261 25.4911 34.0826C25.5355 34.5066 25.8577 34.8187 26.2311 34.8187C26.2598 34.8187 26.2889 34.817 26.3184 34.8128L32.2577 34.0401L37.7667 40.1859C34.5337 40.1456 27.2616 39.4507 22.7094 34.3722Z" fill="white"/>
</svg>
