<svg width="91" height="26" viewBox="0 0 91 26" fill="none" xmlns="http://www.w3.org/2000/svg">
<circle cx="13.5" cy="13" r="13" fill="#D0D0D0"/>
<path d="M43.2328 17.6324H48.1387V20H40.2466V5.11166H43.2328V17.6324ZM55.2839 20.192C54.1463 20.192 53.1225 19.9431 52.2124 19.4454C51.3023 18.9335 50.5842 18.2154 50.0581 17.2911C49.5462 16.3668 49.2902 15.3003 49.2902 14.0916C49.2902 12.8829 49.5533 11.8164 50.0794 10.8921C50.6198 9.96779 51.3521 9.25679 52.2764 8.75909C53.2007 8.24717 54.2317 7.99121 55.3693 7.99121C56.5069 7.99121 57.5378 8.24717 58.4621 8.75909C59.3864 9.25679 60.1116 9.96779 60.6378 10.8921C61.1781 11.8164 61.4483 12.8829 61.4483 14.0916C61.4483 15.3003 61.171 16.3668 60.6164 17.2911C60.0761 18.2154 59.3366 18.9335 58.3981 19.4454C57.4738 19.9431 56.4358 20.192 55.2839 20.192ZM55.2839 17.5897C55.8243 17.5897 56.3291 17.4617 56.7984 17.2058C57.2818 16.9356 57.6658 16.5374 57.9502 16.0113C58.2346 15.4851 58.3768 14.8452 58.3768 14.0916C58.3768 12.9682 58.0782 12.1079 57.4809 11.5107C56.8979 10.8992 56.1798 10.5935 55.3266 10.5935C54.4734 10.5935 53.7553 10.8992 53.1723 11.5107C52.6035 12.1079 52.3191 12.9682 52.3191 14.0916C52.3191 15.215 52.5964 16.0824 53.1509 16.6938C53.7197 17.2911 54.4307 17.5897 55.2839 17.5897ZM68.2674 7.99121C69.1491 7.99121 69.924 8.16896 70.5924 8.52446C71.2607 8.86574 71.7869 9.31367 72.1708 9.86825V8.18318H75.1783V20.0853C75.1783 21.1803 74.9579 22.1543 74.5171 23.0075C74.0763 23.875 73.4151 24.5575 72.5334 25.0552C71.6518 25.5671 70.5853 25.8231 69.3339 25.8231C67.656 25.8231 66.2766 25.432 65.1959 24.6499C64.1294 23.8678 63.525 22.8013 63.3828 21.4504H66.3477C66.5041 21.9908 66.8383 22.4174 67.3502 22.7302C67.8764 23.0573 68.5092 23.2208 69.2486 23.2208C70.116 23.2208 70.8199 22.9578 71.3603 22.4316C71.9006 21.9197 72.1708 21.1376 72.1708 20.0853V18.2509C71.7869 18.8055 71.2536 19.2677 70.5711 19.6374C69.9027 20.0071 69.1348 20.192 68.2674 20.192C67.272 20.192 66.3619 19.936 65.5372 19.4241C64.7124 18.9122 64.0583 18.1941 63.5748 17.2698C63.1056 16.3312 62.8709 15.2576 62.8709 14.0489C62.8709 12.8544 63.1056 11.7951 63.5748 10.8708C64.0583 9.94646 64.7053 9.23546 65.5158 8.73776C66.3406 8.24006 67.2578 7.99121 68.2674 7.99121ZM72.1708 14.0916C72.1708 13.3664 72.0286 12.7478 71.7442 12.2359C71.4598 11.7097 71.0759 11.3116 70.5924 11.0414C70.1089 10.757 69.5899 10.6148 69.0353 10.6148C68.4807 10.6148 67.9688 10.7499 67.4995 11.0201C67.0303 11.2902 66.6463 11.6884 66.3477 12.2145C66.0633 12.7265 65.9211 13.3379 65.9211 14.0489C65.9211 14.7599 66.0633 15.3856 66.3477 15.926C66.6463 16.4521 67.0303 16.8574 67.4995 17.1418C67.983 17.4262 68.4949 17.5684 69.0353 17.5684C69.5899 17.5684 70.1089 17.4333 70.5924 17.1631C71.0759 16.8787 71.4598 16.4805 71.7442 15.9686C72.0286 15.4425 72.1708 14.8168 72.1708 14.0916ZM83.3421 20.192C82.2045 20.192 81.1806 19.9431 80.2705 19.4454C79.3605 18.9335 78.6423 18.2154 78.1162 17.2911C77.6043 16.3668 77.3483 15.3003 77.3483 14.0916C77.3483 12.8829 77.6114 11.8164 78.1375 10.8921C78.6779 9.96779 79.4102 9.25679 80.3345 8.75909C81.2588 8.24717 82.2898 7.99121 83.4274 7.99121C84.565 7.99121 85.5959 8.24717 86.5202 8.75909C87.4445 9.25679 88.1697 9.96779 88.6959 10.8921C89.2362 11.8164 89.5064 12.8829 89.5064 14.0916C89.5064 15.3003 89.2291 16.3668 88.6746 17.2911C88.1342 18.2154 87.3948 18.9335 86.4562 19.4454C85.5319 19.9431 84.4939 20.192 83.3421 20.192ZM83.3421 17.5897C83.8824 17.5897 84.3872 17.4617 84.8565 17.2058C85.34 16.9356 85.7239 16.5374 86.0083 16.0113C86.2927 15.4851 86.4349 14.8452 86.4349 14.0916C86.4349 12.9682 86.1363 12.1079 85.539 11.5107C84.956 10.8992 84.2379 10.5935 83.3847 10.5935C82.5315 10.5935 81.8134 10.8992 81.2304 11.5107C80.6616 12.1079 80.3772 12.9682 80.3772 14.0916C80.3772 15.215 80.6545 16.0824 81.2091 16.6938C81.7779 17.2911 82.4889 17.5897 83.3421 17.5897Z" fill="#285E67"/>
</svg>
